<svg width="31" height="30" viewBox="0 0 31 30" fill="none" xmlns="http://www.w3.org/2000/svg">
<path fill-rule="evenodd" clip-rule="evenodd" d="M5.09999 0L25.0389 0C26.8122 0 27.4553 0.183795 28.1036 0.528923C28.752 0.874051 29.2608 1.38051 29.6075 2.02585C29.9542 2.67118 30.1389 3.31129 30.1389 5.07649V24.9235C30.1389 26.6887 29.9542 27.3288 29.6075 27.9742C29.2608 28.6195 28.752 29.1259 28.1036 29.4711C27.4553 29.8162 26.8122 30 25.0389 30H5.09999C3.32661 30 2.68354 29.8162 2.03522 29.4711C1.3869 29.1259 0.878096 28.6195 0.531371 27.9742C0.184645 27.3288 0 26.6887 0 24.9235L0 5.07649C0 3.31129 0.184645 2.67118 0.531371 2.02585C0.878096 1.38051 1.3869 0.874051 2.03522 0.528923C2.68354 0.183795 3.32661 0 5.09999 0Z" fill="#14191D"/>
<path d="M15.0694 25.6803C20.9951 25.6803 25.7988 20.8987 25.7988 15.0003C25.7988 9.10191 20.9951 4.32031 15.0694 4.32031C9.1437 4.32031 4.33997 9.10191 4.33997 15.0003C4.33997 20.8987 9.1437 25.6803 15.0694 25.6803Z" fill="url(#paint0_linear_1_159)"/>
<defs>
<linearGradient id="paint0_linear_1_159" x1="4.33997" y1="1072.32" x2="2150.23" y2="1072.32" gradientUnits="userSpaceOnUse">
<stop stop-color="#31726A"/>
<stop offset="0.0200888" stop-color="#00FEC6"/>
</linearGradient>
</defs>
</svg>
