<svg xmlns="http://www.w3.org/2000/svg" width="1811" height="250" viewBox="0 0 1811 250"><defs><linearGradient id="a" x1="0%" x2="100%" y1="50%" y2="50%"><stop offset="0%" stop-color="#31726A"/><stop offset="100%" stop-color="#00FEC6"/></linearGradient></defs><g fill="none" fill-rule="evenodd"><path fill="#14191D" fill-rule="nonzero" d="M4.8 142C3.46666667 142 2.33333333 141.533333 1.4 140.6.466666667 139.666667 0 138.533333 0 137.2L0 7C0 5.53333333.466666667 4.33333333 1.4 3.4 2.33333333 2.46666667 3.46666667 2 4.8 2L20.2 2C22.0666667 2 23.4333333 2.43333333 24.3 3.3 25.1666667 4.16666667 25.7333333 4.8 26 5.2L83.6 94.8 83.6 7C83.6 5.53333333 84.0333333 4.33333333 84.9 3.4 85.7666667 2.46666667 86.9333333 2 88.4 2L105.2 2C106.666667 2 107.866667 2.46666667 108.8 3.4 109.733333 4.33333333 110.2 5.53333333 110.2 7L110.2 137C110.2 138.466667 109.733333 139.666667 108.8 140.6 107.866667 141.533333 106.733333 142 105.4 142L89.8 142C87.9333333 142 86.6 141.533333 85.8 140.6 85 139.666667 84.4 139.066667 84 138.8L26.6 51.2 26.6 137.2C26.6 138.533333 26.1333333 139.666667 25.2 140.6 24.2666667 141.533333 23.0666667 142 21.6 142L4.8 142ZM146.2 142C144.866667 142 143.733333 141.533333 142.8 140.6 141.866667 139.666667 141.4 138.533333 141.4 137.2L141.4 7C141.4 5.53333333 141.866667 4.33333333 142.8 3.4 143.733333 2.46666667 144.866667 2 146.2 2L234.2 2C235.666667 2 236.866667 2.46666667 237.8 3.4 238.733333 4.33333333 239.2 5.53333333 239.2 7L239.2 20.2C239.2 21.5333333 238.733333 22.6666667 237.8 23.6 236.866667 24.5333333 235.666667 25 234.2 25L168.4 25 168.4 60.4 229.8 60.4C231.266667 60.4 232.466667 60.8333333 233.4 61.7 234.333333 62.5666667 234.8 63.7333333 234.8 65.2L234.8 77.6C234.8 79.0666667 234.333333 80.2333333 233.4 81.1 232.466667 81.9666667 231.266667 82.4 229.8 82.4L168.4 82.4 168.4 119 235.8 119C237.266667 119 238.466667 119.466667 239.4 120.4 240.333333 121.333333 240.8 122.533333 240.8 124L240.8 137.2C240.8 138.533333 240.333333 139.666667 239.4 140.6 238.466667 141.533333 237.266667 142 235.8 142L146.2 142ZM288.8 142C286.8 142 285.233333 141.433333 284.1 140.3 282.966667 139.166667 282.2 137.733333 281.8 136L258 7.8C258 7.4 257.966667 7.06666667 257.9 6.8 257.833333 6.53333333 257.8 6.33333333 257.8 6.2 257.8 5 258.233333 4 259.1 3.2 259.966667 2.4 260.933333 2 262 2L279.6 2C282.933333 2 284.8 3.33333333 285.2 6L301.8 96.6 319.8 38C320.2 36.9333333 320.9 35.8333333 321.9 34.7 322.9 33.5666667 324.4 33 326.4 33L337.2 33C339.333333 33 340.866667 33.5666667 341.8 34.7 342.733333 35.8333333 343.333333 36.9333333 343.6 38L361.8 96.4 378.4 6C378.8 3.33333333 380.666667 2 384 2L401.6 2C402.666667 2 403.6 2.4 404.4 3.2 405.2 4 405.6 5 405.6 6.2 405.6 6.33333333 405.6 6.53333333 405.6 6.8 405.6 7.06666667 405.533333 7.4 405.4 7.8L381.6 136C381.333333 137.733333 380.6 139.166667 379.4 140.3 378.2 141.433333 376.6 142 374.6 142L361.2 142C359.2 142 357.633333 141.466667 356.5 140.4 355.366667 139.333333 354.6 138.2 354.2 137L331.8 70.2 309.4 137C308.866667 138.2 308.066667 139.333333 307 140.4 305.933333 141.466667 304.333333 142 302.2 142L288.8 142ZM476.2 144C463.8 144 453.433333 142.166667 445.1 138.5 436.766667 134.833333 430.433333 130.033333 426.1 124.1 421.766667 118.166667 419.466667 111.933333 419.2 105.4 419.2 104.2 419.6 103.2 420.4 102.4 421.2 101.6 422.2 101.2 423.4 101.2L441.2 101.2C442.933333 101.2 444.233333 101.566667 445.1 102.3 445.966667 103.033333 446.733333 103.933333 447.4 105 448.2 107.533333 449.733333 110.033333 452 112.5 454.266667 114.966667 457.366667 117 461.3 118.6 465.233333 120.2 470.2 121 476.2 121 485.8 121 492.966667 119.4 497.7 116.2 502.433333 113 504.8 108.666667 504.8 103.2 504.8 99.3333333 503.533333 96.2333333 501 93.9 498.466667 91.5666667 494.566667 89.4333333 489.3 87.5 484.033333 85.5666667 477.066667 83.5333333 468.4 81.4 458.4 79 450.033333 76.1 443.3 72.7 436.566667 69.3 431.5 65 428.1 59.8 424.7 54.6 423 48 423 40 423 32.2666667 425.1 25.4 429.3 19.4 433.5 13.4 439.5 8.66666667 447.3 5.2 455.1 1.73333333 464.4 0 475.2 0 483.866667 0 491.533333 1.16666667 498.2 3.5 504.866667 5.83333333 510.4 8.9 514.8 12.7 519.2 16.5 522.566667 20.5666667 524.9 24.9 527.233333 29.2333333 528.466667 33.4666667 528.6 37.6 528.6 38.6666667 528.233333 39.6333333 527.5 40.5 526.766667 41.3666667 525.733333 41.8 524.4 41.8L505.8 41.8C504.733333 41.8 503.666667 41.5333333 502.6 41 501.533333 40.4666667 500.666667 39.4666667 500 38 499.2 33.8666667 496.6 30.3333333 492.2 27.4 487.8 24.4666667 482.133333 23 475.2 23 468 23 462.2 24.3333333 457.8 27 453.4 29.6666667 451.2 33.8 451.2 39.4 451.2 43.1333333 452.3 46.2333333 454.5 48.7 456.7 51.1666667 460.233333 53.3333333 465.1 55.2 469.966667 57.0666667 476.4 59.0666667 484.4 61.2 495.733333 63.7333333 505 66.6666667 512.2 70 519.4 73.3333333 524.666667 77.5666667 528 82.7 531.333333 87.8333333 533 94.3333333 533 102.2 533 111 530.633333 118.5 525.9 124.7 521.166667 130.9 514.533333 135.666667 506 139 497.466667 142.333333 487.533333 144 476.2 144ZM560.8 142C559.466667 142 558.333333 141.533333 557.4 140.6 556.466667 139.666667 556 138.533333 556 137.2L556 7C556 5.53333333 556.466667 4.33333333 557.4 3.4 558.333333 2.46666667 559.466667 2 560.8 2L612.6 2C628.733333 2 641.466667 5.73333333 650.8 13.2 660.133333 20.6666667 664.8 31.5333333 664.8 45.8 664.8 55.6666667 662.366667 63.8666667 657.5 70.4 652.633333 76.9333333 646.133333 81.6666667 638 84.6L667.2 135.6C667.6 136.4 667.8 137.133333 667.8 137.8 667.8 139 667.366667 140 666.5 140.8 665.633333 141.6 664.666667 142 663.6 142L645.4 142C643.133333 142 641.4 141.4 640.2 140.2 639 139 638.066667 137.8 637.4 136.6L611.6 89.2 583.8 89.2 583.8 137.2C583.8 138.533333 583.366667 139.666667 582.5 140.6 581.633333 141.533333 580.466667 142 579 142L560.8 142ZM583.8 66.6 612 66.6C620.133333 66.6 626.2 64.7666667 630.2 61.1 634.2 57.4333333 636.2 52.2666667 636.2 45.6 636.2 38.9333333 634.233333 33.7 630.3 29.9 626.366667 26.1 620.266667 24.2 612 24.2L583.8 24.2 583.8 66.6ZM744 144C732.133333 144 721.933333 142.033333 713.4 138.1 704.866667 134.166667 698.2 128.1 693.4 119.9 688.6 111.7 686 101.466667 685.6 89.2 685.466667 83.4666667 685.4 77.8 685.4 72.2 685.4 66.6 685.466667 60.8666667 685.6 55 686 42.8666667 688.666667 32.7333333 693.6 24.6 698.533333 16.4666667 705.3 10.3333333 713.9 6.2 722.5 2.06666667 732.533333 0 744 0 755.466667 0 765.533333 2.06666667 774.2 6.2 782.866667 10.3333333 789.666667 16.4666667 794.6 24.6 799.533333 32.7333333 802.2 42.8666667 802.6 55 802.866667 60.8666667 803 66.6 803 72.2 803 77.8 802.866667 83.4666667 802.6 89.2 802.2 101.466667 799.6 111.7 794.8 119.9 790 128.1 783.3 134.166667 774.7 138.1 766.1 142.033333 755.866667 144 744 144ZM744 121C752.666667 121 759.733333 118.433333 765.2 113.3 770.666667 108.166667 773.6 99.8 774 88.2 774.266667 82.3333333 774.4 76.9 774.4 71.9 774.4 66.9 774.266667 61.5333333 774 55.8 773.733333 48.0666667 772.3 41.7666667 769.7 36.9 767.1 32.0333333 763.6 28.5 759.2 26.3 754.8 24.1 749.733333 23 744 23 738.4 23 733.4 24.1 729 26.3 724.6 28.5 721.1 32.0333333 718.5 36.9 715.9 41.7666667 714.466667 48.0666667 714.2 55.8 714.066667 61.5333333 714 66.9 714 71.9 714 76.9 714.066667 82.3333333 714.2 88.2 714.6 99.8 717.533333 108.166667 723 113.3 728.466667 118.433333 735.466667 121 744 121ZM883 144C871.133333 144 860.933333 142.033333 852.4 138.1 843.866667 134.166667 837.2 128.1 832.4 119.9 827.6 111.7 825 101.466667 824.6 89.2 824.466667 83.4666667 824.4 77.8 824.4 72.2 824.4 66.6 824.466667 60.8666667 824.6 55 825 42.8666667 827.666667 32.7333333 832.6 24.6 837.533333 16.4666667 844.3 10.3333333 852.9 6.2 861.5 2.06666667 871.533333 0 883 0 894.466667 0 904.533333 2.06666667 913.2 6.2 921.866667 10.3333333 928.666667 16.4666667 933.6 24.6 938.533333 32.7333333 941.2 42.8666667 941.6 55 941.866667 60.8666667 942 66.6 942 72.2 942 77.8 941.866667 83.4666667 941.6 89.2 941.2 101.466667 938.6 111.7 933.8 119.9 929 128.1 922.3 134.166667 913.7 138.1 905.1 142.033333 894.866667 144 883 144ZM883 121C891.666667 121 898.733333 118.433333 904.2 113.3 909.666667 108.166667 912.6 99.8 913 88.2 913.266667 82.3333333 913.4 76.9 913.4 71.9 913.4 66.9 913.266667 61.5333333 913 55.8 912.733333 48.0666667 911.3 41.7666667 908.7 36.9 906.1 32.0333333 902.6 28.5 898.2 26.3 893.8 24.1 888.733333 23 883 23 877.4 23 872.4 24.1 868 26.3 863.6 28.5 860.1 32.0333333 857.5 36.9 854.9 41.7666667 853.466667 48.0666667 853.2 55.8 853.066667 61.5333333 853 66.9 853 71.9 853 76.9 853.066667 82.3333333 853.2 88.2 853.6 99.8 856.533333 108.166667 862 113.3 867.466667 118.433333 874.466667 121 883 121ZM971.2 142C969.733333 142 968.533333 141.533333 967.6 140.6 966.666667 139.666667 966.2 138.533333 966.2 137.2L966.2 7C966.2 5.53333333 966.666667 4.33333333 967.6 3.4 968.533333 2.46666667 969.733333 2 971.2 2L987 2C988.866667 2 990.266667 2.5 991.2 3.5 992.133333 4.5 992.733333 5.26666667 993 5.8L1031.6 77.8 1070.6 5.8C1070.86667 5.26666667 1071.46667 4.5 1072.4 3.5 1073.33333 2.5 1074.73333 2 1076.6 2L1092.2 2C1093.66667 2 1094.86667 2.46666667 1095.8 3.4 1096.73333 4.33333333 1097.2 5.53333333 1097.2 7L1097.2 137.2C1097.2 138.533333 1096.73333 139.666667 1095.8 140.6 1094.86667 141.533333 1093.66667 142 1092.2 142L1075.4 142C1073.93333 142 1072.76667 141.533333 1071.9 140.6 1071.03333 139.666667 1070.6 138.533333 1070.6 137.2L1070.6 50.6 1042.6 104C1041.93333 105.2 1041.06667 106.233333 1040 107.1 1038.93333 107.966667 1037.53333 108.4 1035.8 108.4L1027.6 108.4C1025.73333 108.4 1024.3 107.966667 1023.3 107.1 1022.3 106.233333 1021.46667 105.2 1020.8 104L992.8 50.6 992.8 137.2C992.8 138.533333 992.333333 139.666667 991.4 140.6 990.466667 141.533333 989.333333 142 988 142L971.2 142ZM1177 144C1164.6 144 1154.23333 142.166667 1145.9 138.5 1137.56667 134.833333 1131.23333 130.033333 1126.9 124.1 1122.56667 118.166667 1120.26667 111.933333 1120 105.4 1120 104.2 1120.4 103.2 1121.2 102.4 1122 101.6 1123 101.2 1124.2 101.2L1142 101.2C1143.73333 101.2 1145.03333 101.566667 1145.9 102.3 1146.76667 103.033333 1147.53333 103.933333 1148.2 105 1149 107.533333 1150.53333 110.033333 1152.8 112.5 1155.06667 114.966667 1158.16667 117 1162.1 118.6 1166.03333 120.2 1171 121 1177 121 1186.6 121 1193.76667 119.4 1198.5 116.2 1203.23333 113 1205.6 108.666667 1205.6 103.2 1205.6 99.3333333 1204.33333 96.2333333 1201.8 93.9 1199.26667 91.5666667 1195.36667 89.4333333 1190.1 87.5 1184.83333 85.5666667 1177.86667 83.5333333 1169.2 81.4 1159.2 79 1150.83333 76.1 1144.1 72.7 1137.36667 69.3 1132.3 65 1128.9 59.8 1125.5 54.6 1123.8 48 1123.8 40 1123.8 32.2666667 1125.9 25.4 1130.1 19.4 1134.3 13.4 1140.3 8.66666667 1148.1 5.2 1155.9 1.73333333 1165.2 0 1176 0 1184.66667 0 1192.33333 1.16666667 1199 3.5 1205.66667 5.83333333 1211.2 8.9 1215.6 12.7 1220 16.5 1223.36667 20.5666667 1225.7 24.9 1228.03333 29.2333333 1229.26667 33.4666667 1229.4 37.6 1229.4 38.6666667 1229.03333 39.6333333 1228.3 40.5 1227.56667 41.3666667 1226.53333 41.8 1225.2 41.8L1206.6 41.8C1205.53333 41.8 1204.46667 41.5333333 1203.4 41 1202.33333 40.4666667 1201.46667 39.4666667 1200.8 38 1200 33.8666667 1197.4 30.3333333 1193 27.4 1188.6 24.4666667 1182.93333 23 1176 23 1168.8 23 1163 24.3333333 1158.6 27 1154.2 29.6666667 1152 33.8 1152 39.4 1152 43.1333333 1153.1 46.2333333 1155.3 48.7 1157.5 51.1666667 1161.03333 53.3333333 1165.9 55.2 1170.76667 57.0666667 1177.2 59.0666667 1185.2 61.2 1196.53333 63.7333333 1205.8 66.6666667 1213 70 1220.2 73.3333333 1225.46667 77.5666667 1228.8 82.7 1232.13333 87.8333333 1233.8 94.3333333 1233.8 102.2 1233.8 111 1231.43333 118.5 1226.7 124.7 1221.96667 130.9 1215.33333 135.666667 1206.8 139 1198.26667 142.333333 1188.33333 144 1177 144ZM1250 142C1248.66667 142 1247.53333 141.533333 1246.6 140.6 1245.66667 139.666667 1245.2 138.533333 1245.2 137.2L1245.2 117.4C1245.2 115.933333 1245.66667 114.733333 1246.6 113.8 1247.53333 112.866667 1248.66667 112.4 1250 112.4L1270 112.4C1271.33333 112.4 1272.46667 112.866667 1273.4 113.8 1274.33333 114.733333 1274.8 115.933333 1274.8 117.4L1274.8 137.2C1274.8 138.533333 1274.33333 139.666667 1273.4 140.6 1272.46667 141.533333 1271.33333 142 1270 142L1250 142ZM1291.8 142C1290.73333 142 1289.76667 141.6 1288.9 140.8 1288.03333 140 1287.6 139 1287.6 137.8 1287.6 137.266667 1287.73333 136.666667 1288 136L1336.2 7C1336.6 5.66666667 1337.36667 4.5 1338.5 3.5 1339.63333 2.5 1341.2 2 1343.2 2L1365 2C1367 2 1368.53333 2.5 1369.6 3.5 1370.66667 4.5 1371.46667 5.66666667 1372 7L1420.2 136C1420.33333 136.666667 1420.4 137.266667 1420.4 137.8 1420.4 139 1420 140 1419.2 140.8 1418.4 141.6 1417.46667 142 1416.4 142L1399 142C1397.13333 142 1395.76667 141.566667 1394.9 140.7 1394.03333 139.833333 1393.46667 139 1393.2 138.2L1383.8 113.8 1324.4 113.8 1315 138.2C1314.73333 139 1314.16667 139.833333 1313.3 140.7 1312.43333 141.566667 1311.06667 142 1309.2 142L1291.8 142ZM1331.4 90.8 1376.8 90.8 1354 29 1331.4 90.8ZM1442.8 142C1441.46667 142 1440.33333 141.533333 1439.4 140.6 1438.46667 139.666667 1438 138.533333 1438 137.2L1438 6.8C1438 5.46666667 1438.46667 4.33333333 1439.4 3.4 1440.33333 2.46666667 1441.46667 2 1442.8 2L1461.6 2C1463.06667 2 1464.23333 2.46666667 1465.1 3.4 1465.96667 4.33333333 1466.4 5.46666667 1466.4 6.8L1466.4 137.2C1466.4 138.533333 1465.96667 139.666667 1465.1 140.6 1464.23333 141.533333 1463.06667 142 1461.6 142L1442.8 142Z" transform="translate(333.6 51)"/><path fill="#14191D" d="M42.3041058,-1.70913651e-15 L207.695894,1.70913651e-15 C222.405953,-9.93057531e-16 227.740176,1.53162258 233.117954,4.40768961 C238.495732,7.28375664 242.716243,11.5042681 245.59231,16.8820459 C248.468377,22.2598237 250,27.5940466 250,42.3041058 L250,207.695894 C250,222.405953 248.468377,227.740176 245.59231,233.117954 C242.716243,238.495732 238.495732,242.716243 233.117954,245.59231 C227.740176,248.468377 222.405953,250 207.695894,250 L42.3041058,250 C27.5940466,250 22.2598237,248.468377 16.8820459,245.59231 C11.5042681,242.716243 7.28375664,238.495732 4.40768961,233.117954 C1.53162258,227.740176 6.62038354e-16,222.405953 -1.13942434e-15,207.695894 L1.13942434e-15,42.3041058 C-6.62038354e-16,27.5940466 1.53162258,22.2598237 4.40768961,16.8820459 C7.28375664,11.5042681 11.5042681,7.28375664 16.8820459,4.40768961 C22.2598237,1.53162258 27.5940466,9.93057531e-16 42.3041058,-1.70913651e-15 Z"/><circle cx="125" cy="125" r="89" fill="url(#a)"/></g></svg>