<svg width="340" height="48" viewBox="0 0 340 48" fill="none" xmlns="http://www.w3.org/2000/svg">
<path fill-rule="evenodd" clip-rule="evenodd" d="M7.98998 0H39.2276C42.0059 0 43.0133 0.288111 44.029 0.829122C45.0447 1.37013 45.8419 2.16405 46.3851 3.17565C46.9283 4.18725 47.2175 5.19066 47.2175 7.95775V39.0693C47.2175 41.8364 46.9283 42.8398 46.3851 43.8514C45.8419 44.863 45.0447 45.6569 44.029 46.1979C43.0133 46.7389 42.0059 47.027 39.2276 47.027H7.98998C5.21169 47.027 4.20422 46.7389 3.18851 46.1979C2.17281 45.6569 1.37568 44.863 0.832481 43.8514C0.289278 42.8398 0 41.8364 0 39.0693V7.95775C0 5.19066 0.289278 4.18725 0.832481 3.17565C1.37568 2.16405 2.17281 1.37013 3.18851 0.829122C4.20422 0.288111 5.21169 0 7.98998 0Z" fill="white"/>
<path d="M23.6083 40.2557C32.8919 40.2557 40.4177 32.7602 40.4177 23.5141C40.4177 14.2679 32.8919 6.77246 23.6083 6.77246C14.3247 6.77246 6.79883 14.2679 6.79883 23.5141C6.79883 32.7602 14.3247 40.2557 23.6083 40.2557Z" fill="url(#paint0_linear_13_10)"/>
<defs>
<linearGradient id="paint0_linear_13_10" x1="6.79883" y1="1680.93" x2="3368.69" y2="1680.93" gradientUnits="userSpaceOnUse">
<stop stop-color="#31726A"/>
<stop offset="0.0200888" stop-color="#00FEC6"/>
</linearGradient>
</defs>
</svg>
