<svg width="48" height="48" viewBox="0 0 48 48" fill="none" xmlns="http://www.w3.org/2000/svg">
<g clip-path="url(#clip0_13_10)">
<path fill-rule="evenodd" clip-rule="evenodd" d="M8.12239 0H39.8777C42.702 0 43.7261 0.294072 44.7587 0.846277C45.7912 1.39848 46.6016 2.20882 47.1538 3.24135C47.706 4.27388 48 5.29806 48 8.1224V39.8777C48 42.702 47.706 43.7262 47.1538 44.7587C46.6016 45.7912 45.7912 46.6015 44.7587 47.1537C43.7261 47.7059 42.702 48 39.8777 48H8.12239C5.29806 48 4.27389 47.7059 3.24135 47.1537C2.20882 46.6015 1.39848 45.7912 0.846277 44.7587C0.294072 43.7262 0 42.702 0 39.8777V8.1224C0 5.29806 0.294072 4.27388 0.846277 3.24135C1.39848 2.20882 2.20882 1.39848 3.24135 0.846277C4.27389 0.294072 5.29806 0 8.12239 0Z" fill="white"/>
<path d="M23.6083 40.2557C32.8919 40.2557 40.4177 32.7602 40.4177 23.5141C40.4177 14.2679 32.8919 6.77246 23.6083 6.77246C14.3247 6.77246 6.79883 14.2679 6.79883 23.5141C6.79883 32.7602 14.3247 40.2557 23.6083 40.2557Z" fill="url(#paint0_linear_13_10)"/>
</g>
<defs>
<linearGradient id="paint0_linear_13_10" x1="6.79883" y1="1680.93" x2="3368.69" y2="1680.93" gradientUnits="userSpaceOnUse">
<stop stop-color="#31726A"/>
<stop offset="0.0200888" stop-color="#00FEC6"/>
</linearGradient>
<clipPath id="clip0_13_10">
<rect width="48" height="48" fill="white"/>
</clipPath>
</defs>
</svg>
