<svg width="48" height="48" viewBox="0 0 48 48" fill="none" xmlns="http://www.w3.org/2000/svg">
<path fill-rule="evenodd" clip-rule="evenodd" d="M8.12239 0H39.8777C42.702 0 43.7261 0.294072 44.7587 0.846277C45.7912 1.39848 46.6016 2.20882 47.1538 3.24135C47.706 4.27388 48 5.29806 48 8.1224V39.8777C48 42.702 47.706 43.7262 47.1538 44.7587C46.6016 45.7912 45.7912 46.6015 44.7587 47.1537C43.7261 47.7059 42.702 48 39.8777 48H8.12239C5.29806 48 4.27389 47.7059 3.24135 47.1537C2.20882 46.6015 1.39848 45.7912 0.846277 44.7587C0.294072 43.7262 0 42.702 0 39.8777V8.1224C0 5.29806 0.294072 4.27388 0.846277 3.24135C1.39848 2.20882 2.20882 1.39848 3.24135 0.846277C4.27389 0.294072 5.29806 0 8.12239 0Z" fill="#14191D"/>
<path d="M23.8095 40.4832C33.0931 40.4832 40.6189 32.9877 40.6189 23.7416C40.6189 14.4954 33.0931 7 23.8095 7C14.5259 7 7 14.4954 7 23.7416C7 32.9877 14.5259 40.4832 23.8095 40.4832Z" fill="url(#paint0_linear_21_13)"/>
<defs>
<linearGradient id="paint0_linear_21_13" x1="7" y1="1681.16" x2="3368.89" y2="1681.16" gradientUnits="userSpaceOnUse">
<stop stop-color="#31726A"/>
<stop offset="0.0200888" stop-color="#00FEC6"/>
</linearGradient>
</defs>
</svg>
