<svg width="340" height="48" viewBox="0 0 340 48" fill="none" xmlns="http://www.w3.org/2000/svg">
<path d="M63.9144 36.3051C63.6626 36.3051 63.4485 36.2173 63.2722 36.0418C63.096 35.8662 63.0078 35.653 63.0078 35.4022V10.9105C63.0078 10.6346 63.096 10.4089 63.2722 10.2333C63.4485 10.0578 63.6626 9.96997 63.9144 9.96997H66.823C67.1755 9.96997 67.4337 10.0515 67.5974 10.2145C67.761 10.3775 67.8681 10.4967 67.9184 10.5719L78.7974 27.4264V10.9105C78.7974 10.6346 78.8792 10.4089 79.0429 10.2333C79.2066 10.0578 79.4269 9.96997 79.7039 9.96997H82.877C83.154 9.96997 83.3806 10.0578 83.5569 10.2333C83.7332 10.4089 83.8213 10.6346 83.8213 10.9105V35.3646C83.8213 35.6405 83.7332 35.8662 83.5569 36.0418C83.3806 36.2173 83.1666 36.3051 82.9147 36.3051H79.9684C79.6158 36.3051 79.364 36.2173 79.2129 36.0418C79.0618 35.8662 78.9485 35.7533 78.8729 35.7032L68.0318 19.2249V35.4022C68.0318 35.653 67.9436 35.8662 67.7673 36.0418C67.5911 36.2173 67.3644 36.3051 67.0874 36.3051H63.9144ZM90.6206 36.3051C90.3688 36.3051 90.1548 36.2173 89.9785 36.0418C89.8022 35.8662 89.7141 35.653 89.7141 35.4022V10.9105C89.7141 10.6346 89.8022 10.4089 89.9785 10.2333C90.1548 10.0578 90.3688 9.96997 90.6206 9.96997H107.241C107.518 9.96997 107.745 10.0578 107.921 10.2333C108.097 10.4089 108.186 10.6346 108.186 10.9105V13.3935C108.186 13.6443 108.097 13.8575 107.921 14.0331C107.745 14.2087 107.518 14.2965 107.241 14.2965H94.8136V20.9555H106.41C106.687 20.9555 106.914 21.037 107.09 21.2C107.266 21.363 107.355 21.5825 107.355 21.8584V24.1909C107.355 24.4668 107.266 24.6863 107.09 24.8493C106.914 25.0123 106.687 25.0939 106.41 25.0939H94.8136V31.9786H107.543C107.82 31.9786 108.047 32.0664 108.223 32.242C108.4 32.4175 108.488 32.6433 108.488 32.9192V35.4022C108.488 35.653 108.4 35.8662 108.223 36.0418C108.047 36.2173 107.82 36.3051 107.543 36.3051H90.6206ZM117.554 36.3051C117.176 36.3051 116.88 36.1985 116.666 35.9853C116.452 35.7721 116.307 35.5025 116.231 35.1765L111.736 11.061C111.736 10.9857 111.73 10.923 111.717 10.8729C111.705 10.8227 111.699 10.7851 111.699 10.76C111.699 10.5343 111.78 10.3462 111.944 10.1957C112.108 10.0452 112.29 9.96997 112.492 9.96997H115.816C116.445 9.96997 116.798 10.2208 116.874 10.7224L120.009 27.765L123.408 16.7419C123.484 16.5412 123.616 16.3343 123.805 16.1211C123.994 15.9079 124.277 15.8013 124.655 15.8013H126.695C127.098 15.8013 127.387 15.9079 127.564 16.1211C127.74 16.3343 127.853 16.5412 127.904 16.7419L131.341 27.7274L134.476 10.7224C134.552 10.2208 134.904 9.96997 135.534 9.96997H138.858C139.06 9.96997 139.236 10.0452 139.387 10.1957C139.538 10.3462 139.614 10.5343 139.614 10.76C139.614 10.7851 139.614 10.8227 139.614 10.8729C139.614 10.923 139.601 10.9857 139.576 11.061L135.081 35.1765C135.03 35.5025 134.892 35.7721 134.665 35.9853C134.439 36.1985 134.136 36.3051 133.759 36.3051H131.228C130.85 36.3051 130.554 36.2048 130.34 36.0041C130.126 35.8035 129.981 35.5903 129.906 35.3646L125.675 22.7989L121.444 35.3646C121.344 35.5903 121.192 35.8035 120.991 36.0041C120.789 36.2048 120.487 36.3051 120.084 36.3051H117.554ZM152.948 36.6813C150.606 36.6813 148.648 36.3365 147.074 35.6467C145.5 34.957 144.304 34.0541 143.485 32.938C142.667 31.8219 142.233 30.6493 142.182 29.4203C142.182 29.1946 142.258 29.0065 142.409 28.856C142.56 28.7055 142.749 28.6303 142.975 28.6303H146.337C146.665 28.6303 146.91 28.6993 147.074 28.8372C147.238 28.9752 147.382 29.1445 147.508 29.3451C147.659 29.8216 147.949 30.2919 148.377 30.7559C148.805 31.2199 149.391 31.6024 150.134 31.9034C150.877 32.2043 151.815 32.3548 152.948 32.3548C154.761 32.3548 156.115 32.0539 157.009 31.4519C157.902 30.85 158.349 30.0348 158.349 29.0065C158.349 28.2792 158.11 27.696 157.632 27.2571C157.153 26.8182 156.417 26.4169 155.422 26.0532C154.427 25.6895 153.111 25.307 151.475 24.9057C149.586 24.4543 148.006 23.9088 146.734 23.2692C145.462 22.6296 144.505 21.8208 143.863 20.8426C143.221 19.8645 142.9 18.6229 142.9 17.1181C142.9 15.6634 143.297 14.3717 144.09 13.243C144.883 12.1144 146.016 11.224 147.489 10.5719C148.963 9.9198 150.719 9.59375 152.759 9.59375C154.396 9.59375 155.844 9.81321 157.103 10.2521C158.362 10.691 159.407 11.2679 160.238 11.9827C161.069 12.6975 161.705 13.4625 162.146 14.2776C162.586 15.0928 162.819 15.8891 162.845 16.6666C162.845 16.8673 162.775 17.0491 162.637 17.2121C162.498 17.3752 162.303 17.4567 162.051 17.4567H158.538C158.337 17.4567 158.135 17.4065 157.934 17.3062C157.733 17.2059 157.569 17.0177 157.443 16.7419C157.292 15.9643 156.801 15.2997 155.97 14.7479C155.139 14.1961 154.068 13.9202 152.759 13.9202C151.399 13.9202 150.304 14.171 149.473 14.6727C148.642 15.1743 148.226 15.9518 148.226 17.0052C148.226 17.7075 148.434 18.2906 148.849 18.7546C149.265 19.2186 149.932 19.6262 150.851 19.9773C151.771 20.3285 152.986 20.7047 154.497 21.106C156.637 21.5825 158.387 22.1343 159.747 22.7613C161.107 23.3883 162.102 24.1847 162.731 25.1503C163.361 26.1159 163.676 27.3386 163.676 28.8184C163.676 30.4737 163.229 31.8846 162.335 33.0508C161.441 34.2171 160.188 35.1137 158.576 35.7408C156.964 36.3678 155.088 36.6813 152.948 36.6813ZM168.926 36.3051C168.674 36.3051 168.46 36.2173 168.284 36.0418C168.108 35.8662 168.02 35.653 168.02 35.4022V10.9105C168.02 10.6346 168.108 10.4089 168.284 10.2333C168.46 10.0578 168.674 9.96997 168.926 9.96997H178.71C181.757 9.96997 184.162 10.6722 185.925 12.0768C187.687 13.4813 188.569 15.5254 188.569 18.2091C188.569 20.0651 188.109 21.6076 187.19 22.8366C186.271 24.0655 185.043 24.9559 183.507 25.5077L189.022 35.1012C189.098 35.2517 189.135 35.3896 189.135 35.515C189.135 35.7408 189.053 35.9289 188.89 36.0794C188.726 36.2299 188.544 36.3051 188.342 36.3051H184.905C184.477 36.3051 184.149 36.1922 183.923 35.9665C183.696 35.7408 183.52 35.515 183.394 35.2893L178.521 26.373H173.27V35.4022C173.27 35.653 173.188 35.8662 173.025 36.0418C172.861 36.2173 172.641 36.3051 172.364 36.3051H168.926ZM173.27 22.1217H178.596C180.133 22.1217 181.278 21.7769 182.034 21.0872C182.789 20.3974 183.167 19.4255 183.167 18.1715C183.167 16.9174 182.796 15.933 182.053 15.2182C181.31 14.5034 180.158 14.146 178.596 14.146H173.27V22.1217ZM203.527 36.6813C201.286 36.6813 199.36 36.3114 197.748 35.5715C196.136 34.8316 194.877 33.6904 193.97 32.1479C193.064 30.6054 192.573 28.6805 192.497 26.373C192.472 25.2945 192.459 24.2286 192.459 23.1752C192.459 22.1217 192.472 21.0433 192.497 19.9397C192.573 17.6573 193.076 15.7512 194.008 14.2212C194.94 12.6913 196.218 11.5375 197.842 10.76C199.467 9.98251 201.362 9.59375 203.527 9.59375C205.693 9.59375 207.594 9.98251 209.231 10.76C210.868 11.5375 212.152 12.6913 213.084 14.2212C214.016 15.7512 214.519 17.6573 214.595 19.9397C214.645 21.0433 214.671 22.1217 214.671 23.1752C214.671 24.2286 214.645 25.2945 214.595 26.373C214.519 28.6805 214.028 30.6054 213.122 32.1479C212.215 33.6904 210.95 34.8316 209.326 35.5715C207.701 36.3114 205.768 36.6813 203.527 36.6813ZM203.527 32.3548C205.164 32.3548 206.499 31.872 207.531 30.9064C208.564 29.9408 209.118 28.3669 209.193 26.1849C209.244 25.0813 209.269 24.0593 209.269 23.1187C209.269 22.1782 209.244 21.1687 209.193 20.0902C209.143 18.6355 208.872 17.4504 208.381 16.5349C207.89 15.6195 207.229 14.9548 206.398 14.541C205.567 14.1272 204.61 13.9202 203.527 13.9202C202.47 13.9202 201.525 14.1272 200.694 14.541C199.863 14.9548 199.202 15.6195 198.711 16.5349C198.22 17.4504 197.949 18.6355 197.899 20.0902C197.874 21.1687 197.861 22.1782 197.861 23.1187C197.861 24.0593 197.874 25.0813 197.899 26.1849C197.974 28.3669 198.528 29.9408 199.561 30.9064C200.593 31.872 201.916 32.3548 203.527 32.3548ZM229.78 36.6813C227.539 36.6813 225.612 36.3114 224.001 35.5715C222.389 34.8316 221.13 33.6904 220.223 32.1479C219.317 30.6054 218.826 28.6805 218.75 26.373C218.725 25.2945 218.712 24.2286 218.712 23.1752C218.712 22.1217 218.725 21.0433 218.75 19.9397C218.826 17.6573 219.329 15.7512 220.261 14.2212C221.193 12.6913 222.471 11.5375 224.095 10.76C225.719 9.98251 227.614 9.59375 229.78 9.59375C231.946 9.59375 233.847 9.98251 235.484 10.76C237.121 11.5375 238.405 12.6913 239.337 14.2212C240.269 15.7512 240.772 17.6573 240.848 19.9397C240.898 21.0433 240.924 22.1217 240.924 23.1752C240.924 24.2286 240.898 25.2945 240.848 26.373C240.772 28.6805 240.281 30.6054 239.375 32.1479C238.468 33.6904 237.203 34.8316 235.579 35.5715C233.954 36.3114 232.021 36.6813 229.78 36.6813ZM229.78 32.3548C231.417 32.3548 232.752 31.872 233.784 30.9064C234.817 29.9408 235.371 28.3669 235.446 26.1849C235.497 25.0813 235.522 24.0593 235.522 23.1187C235.522 22.1782 235.497 21.1687 235.446 20.0902C235.396 18.6355 235.125 17.4504 234.634 16.5349C234.143 15.6195 233.482 14.9548 232.651 14.541C231.82 14.1272 230.863 13.9202 229.78 13.9202C228.723 13.9202 227.778 14.1272 226.947 14.541C226.116 14.9548 225.455 15.6195 224.964 16.5349C224.473 17.4504 224.202 18.6355 224.152 20.0902C224.127 21.1687 224.114 22.1782 224.114 23.1187C224.114 24.0593 224.127 25.0813 224.152 26.1849C224.227 28.3669 224.781 29.9408 225.814 30.9064C226.846 31.872 228.168 32.3548 229.78 32.3548ZM246.439 36.3051C246.162 36.3051 245.935 36.2173 245.759 36.0418C245.582 35.8662 245.494 35.653 245.494 35.4022V10.9105C245.494 10.6346 245.582 10.4089 245.759 10.2333C245.935 10.0578 246.162 9.96997 246.439 9.96997H249.423C249.775 9.96997 250.04 10.064 250.216 10.2521C250.392 10.4402 250.506 10.5845 250.556 10.6848L257.846 24.2286L265.212 10.6848C265.263 10.5845 265.376 10.4402 265.552 10.2521C265.728 10.064 265.993 9.96997 266.345 9.96997H269.292C269.569 9.96997 269.795 10.0578 269.972 10.2333C270.148 10.4089 270.236 10.6346 270.236 10.9105V35.4022C270.236 35.653 270.148 35.8662 269.972 36.0418C269.795 36.2173 269.569 36.3051 269.292 36.3051H266.119C265.842 36.3051 265.621 36.2173 265.458 36.0418C265.294 35.8662 265.212 35.653 265.212 35.4022V19.112L259.924 29.157C259.798 29.3827 259.634 29.5771 259.433 29.7401C259.231 29.9032 258.967 29.9847 258.64 29.9847H257.091C256.738 29.9847 256.468 29.9032 256.279 29.7401C256.09 29.5771 255.932 29.3827 255.807 29.157L250.518 19.112V35.4022C250.518 35.653 250.43 35.8662 250.254 36.0418C250.077 36.2173 249.863 36.3051 249.612 36.3051H246.439ZM285.308 36.6813C282.966 36.6813 281.008 36.3365 279.434 35.6467C277.86 34.957 276.664 34.0541 275.846 32.938C275.027 31.8219 274.593 30.6493 274.542 29.4203C274.542 29.1946 274.618 29.0065 274.769 28.856C274.92 28.7055 275.109 28.6303 275.336 28.6303H278.698C279.025 28.6303 279.27 28.6993 279.434 28.8372C279.598 28.9752 279.743 29.1445 279.869 29.3451C280.02 29.8216 280.309 30.2919 280.737 30.7559C281.165 31.2199 281.751 31.6024 282.494 31.9034C283.237 32.2043 284.175 32.3548 285.308 32.3548C287.121 32.3548 288.475 32.0539 289.369 31.4519C290.263 30.85 290.71 30.0348 290.71 29.0065C290.71 28.2792 290.47 27.696 289.992 27.2571C289.514 26.8182 288.777 26.4169 287.782 26.0532C286.788 25.6895 285.472 25.307 283.835 24.9057C281.946 24.4543 280.366 23.9088 279.094 23.2692C277.822 22.6296 276.866 21.8208 276.223 20.8426C275.581 19.8645 275.26 18.6229 275.26 17.1181C275.26 15.6634 275.657 14.3717 276.45 13.243C277.243 12.1144 278.376 11.224 279.85 10.5719C281.323 9.9198 283.079 9.59375 285.119 9.59375C286.756 9.59375 288.204 9.81321 289.463 10.2521C290.722 10.691 291.767 11.2679 292.598 11.9827C293.429 12.6975 294.065 13.4625 294.506 14.2776C294.947 15.0928 295.18 15.8891 295.205 16.6666C295.205 16.8673 295.136 17.0491 294.997 17.2121C294.859 17.3752 294.663 17.4567 294.412 17.4567H290.899C290.697 17.4567 290.496 17.4065 290.294 17.3062C290.093 17.2059 289.929 17.0177 289.803 16.7419C289.652 15.9643 289.161 15.2997 288.33 14.7479C287.499 14.1961 286.429 13.9202 285.119 13.9202C283.759 13.9202 282.664 14.171 281.833 14.6727C281.002 15.1743 280.586 15.9518 280.586 17.0052C280.586 17.7075 280.794 18.2906 281.21 18.7546C281.625 19.2186 282.292 19.6262 283.212 19.9773C284.131 20.3285 285.346 20.7047 286.857 21.106C288.997 21.5825 290.747 22.1343 292.107 22.7613C293.467 23.3883 294.462 24.1847 295.092 25.1503C295.721 26.1159 296.036 27.3386 296.036 28.8184C296.036 30.4737 295.589 31.8846 294.695 33.0508C293.801 34.2171 292.548 35.1137 290.936 35.7408C289.325 36.3678 287.449 36.6813 285.308 36.6813ZM299.096 36.3051C298.844 36.3051 298.63 36.2173 298.453 36.0418C298.277 35.8662 298.189 35.653 298.189 35.4022V31.6776C298.189 31.4017 298.277 31.176 298.453 31.0005C298.63 30.8249 298.844 30.7371 299.096 30.7371H302.873C303.125 30.7371 303.339 30.8249 303.515 31.0005C303.691 31.176 303.78 31.4017 303.78 31.6776V35.4022C303.78 35.653 303.691 35.8662 303.515 36.0418C303.339 36.2173 303.125 36.3051 302.873 36.3051H299.096ZM306.99 36.3051C306.789 36.3051 306.606 36.2299 306.443 36.0794C306.279 35.9289 306.197 35.7408 306.197 35.515C306.197 35.4147 306.222 35.3019 306.273 35.1765L315.376 10.9105C315.452 10.6597 315.597 10.4402 315.811 10.2521C316.025 10.064 316.321 9.96997 316.698 9.96997H320.816C321.193 9.96997 321.483 10.064 321.684 10.2521C321.886 10.4402 322.037 10.6597 322.138 10.9105L331.241 35.1765C331.266 35.3019 331.279 35.4147 331.279 35.515C331.279 35.7408 331.203 35.9289 331.052 36.0794C330.901 36.2299 330.725 36.3051 330.524 36.3051H327.237C326.885 36.3051 326.627 36.2236 326.463 36.0606C326.299 35.8975 326.192 35.7408 326.142 35.5903L324.366 31.0005H313.147L311.372 35.5903C311.322 35.7408 311.215 35.8975 311.051 36.0606C310.887 36.2236 310.629 36.3051 310.277 36.3051H306.99ZM314.47 26.674H323.044L318.738 15.0489L314.47 26.674ZM335.51 36.3051C335.258 36.3051 335.044 36.2173 334.868 36.0418C334.691 35.8662 334.603 35.653 334.603 35.4022V10.8729C334.603 10.6221 334.691 10.4089 334.868 10.2333C335.044 10.0578 335.258 9.96997 335.51 9.96997H339.06C339.337 9.96997 339.558 10.0578 339.722 10.2333C339.885 10.4089 339.967 10.6221 339.967 10.8729V35.4022C339.967 35.653 339.885 35.8662 339.722 36.0418C339.558 36.2173 339.337 36.3051 339.06 36.3051H335.51Z" fill="white"/>
<path fill-rule="evenodd" clip-rule="evenodd" d="M7.98998 0L39.2276 0C42.0059 0 43.0133 0.288111 44.029 0.829122C45.0447 1.37013 45.8419 2.16405 46.3851 3.17565C46.9283 4.18725 47.2175 5.19066 47.2175 7.95775V39.0693C47.2175 41.8364 46.9283 42.8398 46.3851 43.8514C45.8419 44.863 45.0447 45.6569 44.029 46.1979C43.0133 46.7389 42.0059 47.027 39.2276 47.027H7.98998C5.21169 47.027 4.20422 46.7389 3.18851 46.1979C2.17281 45.6569 1.37568 44.863 0.832481 43.8514C0.289278 42.8398 0 41.8364 0 39.0693L0 7.95775C0 5.19066 0.289278 4.18725 0.832481 3.17565C1.37568 2.16405 2.17281 1.37013 3.18851 0.829122C4.20422 0.288111 5.21169 0 7.98998 0Z" fill="white"/>
<path d="M23.6083 40.2557C32.8919 40.2557 40.4177 32.7602 40.4177 23.5141C40.4177 14.2679 32.8919 6.77246 23.6083 6.77246C14.3247 6.77246 6.79883 14.2679 6.79883 23.5141C6.79883 32.7602 14.3247 40.2557 23.6083 40.2557Z" fill="url(#paint0_linear_189_102)"/>
<defs>
<linearGradient id="paint0_linear_189_102" x1="6.79883" y1="1680.93" x2="3368.69" y2="1680.93" gradientUnits="userSpaceOnUse">
<stop stop-color="#31726A"/>
<stop offset="0.0200888" stop-color="#00FEC6"/>
</linearGradient>
</defs>
</svg>
