<svg width="165" height="34" viewBox="0 0 165 34" fill="none" xmlns="http://www.w3.org/2000/svg">
<g clip-path="url(#clip0_226_2)">
<path d="M21.4446 33.9996H50.9996L51 21.25H42.5554V12.7497C42.5554 5.70817 36.8846 0 29.8892 0H13H17.2219C24.2173 0 29.8888 5.70817 29.8888 12.7497V21.2507H21.4442L21.4446 33.9996Z" fill="#00FFC8"/>
<path d="M21.2503 21.2497V12.7495H31.0317L29.7502 0H0V12.7495H8.50029V21.2497C8.50029 28.2919 14.2085 34 21.2503 34H34C26.9581 33.9992 21.2503 28.2911 21.2503 21.2497Z" fill="#4BC8AF"/>
<path d="M43 21V12.5997C43 5.64103 37.2439 0 30.1433 0H13H17.2858C24.386 0 30.1425 5.64142 30.1425 12.5997V21H43Z" fill="#00FFC8"/>
<path d="M62.9732 22.2772H59V19.2334H70.4447V22.2772H66.4718V31.7669H62.9732V22.2772Z" fill="white"/>
<path d="M79.308 19.0005C83.4265 19.0005 86.0509 21.919 86.0509 25.5001C86.0509 29.0812 83.4449 32.0001 79.308 32.0001C75.1895 32.0001 72.5654 29.0812 72.5654 25.5001C72.5654 21.919 75.2076 19.0005 79.308 19.0005ZM79.308 29.1172C81.3306 29.1172 82.4972 27.5595 82.4972 25.5001C82.4972 23.4411 81.3491 21.883 79.308 21.883C77.2853 21.883 76.1372 23.4411 76.1372 25.5001C76.1368 27.5595 77.3034 29.1172 79.308 29.1172ZM89.2944 19.233H94.8345C98.7712 19.233 100.083 21.2386 100.083 23.3514C100.083 25.4823 98.7531 27.5057 94.8715 27.5057H92.8304V31.7673H89.2948L89.2944 19.233ZM94.8345 24.8913C95.9279 24.8913 96.5663 24.354 96.5663 23.4051C96.5663 22.4203 95.8921 21.919 94.8345 21.919H92.8304V24.8913H94.8345Z" fill="white"/>
<path d="M103.491 19.2329H107.027V31.7669H103.491V19.2329Z" fill="white"/>
<path d="M117.05 19C118.964 19 120.549 19.6266 121.934 20.7368L120.002 23.0468C119.237 22.4202 118.417 21.9007 117.123 21.9007C115.1 21.9007 113.806 23.2975 113.806 25.4818C113.806 27.7021 115.063 29.0989 117.123 29.0989C118.362 29.0989 119.273 28.6154 120.02 27.8998L122.062 30.0122C120.64 31.3018 119.018 31.9996 116.923 31.9996C112.986 31.9996 110.271 29.2064 110.271 25.4818C110.271 21.8114 113.095 19 117.05 19ZM126.217 27.8816C127.365 28.526 128.732 28.9918 129.861 28.9918C130.791 28.9918 131.356 28.6517 131.356 28.1145C131.356 26.4311 124.85 27.6309 124.85 22.9037C124.85 20.7728 126.636 19.0004 129.716 19.0004C131.356 19.0004 132.886 19.412 134.508 20.1461L133.232 22.8143C131.993 22.2055 130.882 21.9904 129.898 21.9904C129.004 21.9904 128.494 22.3664 128.494 22.8681C128.494 24.5152 135 23.2797 135 28.0603C135 30.2628 133.287 31.9996 129.879 31.9996C127.929 31.9996 125.797 31.3192 124.558 30.5495L126.217 27.8816Z" fill="white"/>
<path d="M62.9781 6.27698H59V3.23291H70.4594V6.27698H66.4817V15.7674H62.9781V6.27698Z" fill="white"/>
<path d="M73.5252 3.23242H79.2734C83.1964 3.23242 84.5102 5.23798 84.5102 7.35094C84.5102 8.78353 83.8535 10.055 82.357 10.7532L84.6381 15.7669H80.8975L79.2187 11.3265H77.0655V15.7669H73.5252V3.23242ZM79.2368 8.89094C80.3132 8.89094 80.9703 8.37168 80.9703 7.40464C80.9703 6.40205 80.277 5.91835 79.2368 5.91835H77.0655V8.89094H79.2368Z" fill="white"/>
<path d="M88.0505 3.23291H97.685V6.20513H91.5722V8.12143H96.9732V10.6996H91.5722V12.7948H97.7397V15.7674H88.0505V3.23291Z" fill="white"/>
<path d="M101.207 3.23291H104.546L109.327 10.3592V3.23291H112.648V15.7674H109.327L104.528 8.67587V15.7674H101.207V3.23291Z" fill="white"/>
<path d="M116.334 3.23242H120.86C125.531 3.23242 127.994 5.5065 127.994 9.4102C127.994 13.4391 125.713 15.7669 120.86 15.7669H116.334V3.23242ZM121.188 13.0272C123.377 13.0272 124.454 11.6483 124.454 9.44613C124.454 7.33316 123.286 5.97205 121.188 5.97205H119.856V13.0272H121.188Z" fill="white"/>
<path d="M131.224 3.23291H134.764V15.7669H131.224V3.23291Z" fill="white"/>
<path d="M138.45 3.23291H141.789L146.57 10.3592V3.23291H149.891V15.7674H146.57L141.771 8.67587V15.7674H138.45V3.23291Z" fill="white"/>
<path d="M159.928 3C162.063 3 163.596 3.73407 164.891 4.73704L163.029 6.97519C162.208 6.3663 161.26 5.90074 160.055 5.90074C157.975 5.90074 156.698 7.45852 156.698 9.5C156.698 11.7026 157.938 13.0993 160.055 13.0993C160.767 13.0993 161.333 12.9559 161.843 12.6693V10.7711H159.362V8.60482H165V14.4241C163.686 15.3911 161.971 16 159.909 16C155.785 16 153.139 13.2244 153.139 9.48222C153.139 5.93667 155.713 3 159.928 3Z" fill="white"/>
</g>
<defs>
<clipPath id="clip0_226_2">
<rect width="165" height="34" fill="white"/>
</clipPath>
</defs>
</svg>
