<svg height="34" viewBox="0 0 165 34" width="165" xmlns="http://www.w3.org/2000/svg"><g fill="none"><path d="m21.4446165 33.9996103h29.5549963l.0003872-12.749659h-8.4446165v-8.5002923c0-7.04148472-5.6707865-12.749659-12.6661504-12.749659h-16.8892331 4.2219211c6.9953639 0 12.6669248 5.70817428 12.6669248 12.749659v8.5010718h-8.4446166v12.7492692z" fill="#00ffc8"></path><path d="m21.250341 21.2497077v-8.5001949h9.7813772l-1.2814746-12.7495128h-29.7502436v12.7495128h8.50029231v8.5001949c0 7.0421834 5.70817429 12.7502923 12.75004869 12.7502923h12.749659c-7.0418744-.0007795-12.7500487-5.7088883-12.7500487-12.7502923" fill="#4bc8af"></path><path d="m43 21v-8.4003081c0-6.95865968-5.756095-12.5996919-12.8566937-12.5996919h-17.1433063 4.2858266c7.1002057 0 12.8566937 5.64141738 12.8566937 12.5996919v8.4003081h12.8570867z" fill="#00ffc8"></path><g fill="#131d1d" class="logo-text"><g transform="translate(59 19)"><path d="m3.97323233 3.27706788h-3.97323233v-3.04383913h11.4446899v3.04383913h-3.97285503v9.48970332h-3.49860254z"></path><path d="m20.3079673.00037079c4.1184886 0 6.7429121 2.91851113 6.7429121 6.49962921 0 3.5811181-2.6059363 6.5-6.7429121 6.5-4.1184887 0-6.7425349-2.9188819-6.7425349-6.5 0-3.58111808 2.6421561-6.49962921 6.7425349-6.49962921m0 10.11671421c2.0226472 0 3.1892254-1.55770109 3.1892254-3.617085 0-2.05901312-1.148091-3.617085-3.1892254-3.617085-2.0226473 0-3.1707384 1.55807188-3.1707384 3.617085-.0003772 2.05938391 1.166201 3.617085 3.1707384 3.617085m9.9864672-9.88422704h5.5401143c3.9366352 0 5.2484697 2.00561894 5.2484697 4.11839703 0 2.13094695-1.3299443 4.15436395-5.2114954 4.15436395h-2.0411344v4.26152306h-3.5355769v-12.53428404zm5.5401143 5.65830005c1.093384 0 1.7317573-.53727895 1.7317573-1.48613804 0-.98482602-.6742158-1.48613805-1.7317573-1.48613805h-2.0041601v2.97227609z"></path><path d="m44.491.233h3.536v12.534h-3.536z"></path><path d="m58.0500901 0c1.9136107 0 3.4986025.62664005 4.8836311 1.73679407l-1.9313433 2.31003993c-.7655197-.62664005-1.5853691-1.14612094-2.8798483-1.14612094-2.02227 0-3.3167491 1.39677696-3.3167491 3.58111809 0 2.22030804 1.2575048 3.61708495 3.3167491 3.61708495 1.239395 0 2.1505483-.48351393 2.8979582-1.19914428l2.0411344 2.11240728c-1.4220029 1.2896178-3.0432145 1.9874501-5.1390558 1.9874501-3.9366353 0-6.6516082-2.7931831-6.6516082-6.51779805 0-3.67047918 2.8240095-6.48183115 6.7791319-6.48183115m9.1666179 8.88160297c1.1480909.6444381 2.5150096 1.11015402 3.6446134 1.11015402.9296405 0 1.4944424-.34001712 1.4944424-.87729607 0-1.68339988-6.5059745-.48351397-6.5059745-5.21075299 0-2.13094695 1.7860869-3.90333714 4.8658985-3.90333714 1.640076 0 3.1707382.41158015 4.7923271 1.14575015l-1.2756147 2.66822589c-1.2390177-.60884198-2.3505116-.82390188-3.334859-.82390188-.8930435 0-1.4031385.37598403-1.4031385.87766686 0 1.64706218 6.5055973.41158015 6.5055973 5.19221335 0 2.20250994-1.7128929 3.93930404-5.1205687 3.93930404-1.9502078 0-4.0822689-.680405-5.3212866-1.4501711z"></path></g><g transform="translate(59 3)"><path d="m3.97806658 3.27703704h-3.97806658v-3.04407408h11.4593983v3.04407408h-3.9776892v9.49037036h-3.50364252z"></path><path d="m14.525227.23259259h5.748193c3.9229624 0 5.2367812 2.00555556 5.2367812 4.11851852 0 1.43259259-.6567207 2.70407408-2.1532135 3.40222222l2.2811608 5.01370367h-3.7406659l-1.6787893-4.44037033h-2.1532135v4.44037033h-3.5402528zm5.7115827 5.65851852c1.076418 0 1.7335161-.51925926 1.7335161-1.4862963 0-1.00259259-.693331-1.48629629-1.7335161-1.48629629h-2.1713299v2.97259259z"></path><path d="m29.050454.23296296h9.6345451v2.97222223h-6.1127862v1.91629629h5.4009614v2.57814815h-5.4009614v2.09518518h6.1675129v2.97259259h-9.6892718z"></path><path d="m42.2067581.23296296h3.3394623l4.7804736 7.1262963v-7.1262963h3.3209685v12.53444444h-3.3209685l-4.7989675-7.09148147v7.09148147h-3.3209684z"></path><path d="m57.3343564.23259259h4.5253338c4.6713976 0 7.1344775 2.27407408 7.1344775 6.17777778 0 4.02888893-2.2807833 6.35666663-7.1344775 6.35666663h-4.5253338zm4.8533167 9.79481481c2.1898238 0 3.2662418-1.37888888 3.2662418-3.5811111 0-2.11296297-1.167755-3.47407408-3.2662418-3.47407408h-1.3319352v7.05518518z"></path><path d="m72.224.233h3.54v12.534h-3.54z"></path><path d="m79.4503685.23296296h3.3390849l4.780851 7.1262963v-7.1262963h3.3209685v12.53444444h-3.3209685l-4.7989674-7.09148147v7.09148147h-3.3209685z"></path><path d="m100.927776 0c2.135097 0 3.667823.73407407 4.963148 1.73703704l-1.861463 2.23814815c-.821279-.60888889-1.769749-1.07444445-2.974492-1.07444445-2.079993 0-3.3572015 1.55777778-3.3572015 3.59925926 0 2.20259259 1.2405982 3.5992593 3.3572015 3.5992593.711825 0 1.277586-.14333337 1.788243-.43000004v-1.89814815h-2.481574v-2.1662963h5.638362v5.81925929c-1.313819.967037-3.028841 1.5759259-5.090717 1.5759259-4.1241308 0-6.7702622-2.7755556-6.7702622-6.51777778.0003775-3.54555555 2.5736657-6.48222222 6.7887552-6.48222222"></path></g></g></g></svg>